<?xml version="1.0" encoding="UTF-8" standalone="no"?>
<!-- Created with Inkscape (http://www.inkscape.org/) -->

<svg
   version="1.1"
   id="svg2"
   xml:space="preserve"
   width="164.87334"
   height="80.514114"
   viewBox="0 0 164.87334 80.514113"
   sodipodi:docname="lula-paluza-logo-nero.svg"
   inkscape:version="1.1 (c68e22c387, 2021-05-23)"
   xmlns:inkscape="http://www.inkscape.org/namespaces/inkscape"
   xmlns:sodipodi="http://sodipodi.sourceforge.net/DTD/sodipodi-0.dtd"
   xmlns="http://www.w3.org/2000/svg"
   xmlns:svg="http://www.w3.org/2000/svg"><defs
     id="defs6"><linearGradient
       x1="0"
       y1="0"
       x2="1"
       y2="0"
       gradientUnits="userSpaceOnUse"
       gradientTransform="matrix(0.9248,0,0,-0.9248,12.9043,26.018833)"
       spreadMethod="pad"
       id="linearGradient744"><stop
         style="stop-opacity:1;stop-color:#333333"
         offset="0"
         id="stop738" /><stop
         style="stop-opacity:1;stop-color:#ffffff"
         offset="0.40053672"
         id="stop740" /><stop
         style="stop-opacity:1;stop-color:#ffffff"
         offset="1"
         id="stop742" /></linearGradient><linearGradient
       x1="0"
       y1="0"
       x2="1"
       y2="0"
       gradientUnits="userSpaceOnUse"
       gradientTransform="matrix(1.0361,0,0,-1.0361,20.742199,26.269239)"
       spreadMethod="pad"
       id="linearGradient766"><stop
         style="stop-opacity:1;stop-color:#333333"
         offset="0"
         id="stop760" /><stop
         style="stop-opacity:1;stop-color:#ffffff"
         offset="0.40053672"
         id="stop762" /><stop
         style="stop-opacity:1;stop-color:#ffffff"
         offset="1"
         id="stop764" /></linearGradient><linearGradient
       x1="0"
       y1="0"
       x2="1"
       y2="0"
       gradientUnits="userSpaceOnUse"
       gradientTransform="matrix(1.2550298,0,0,-1.2550298,33.037098,35.255409)"
       spreadMethod="pad"
       id="linearGradient788"><stop
         style="stop-opacity:1;stop-color:#333333"
         offset="0"
         id="stop782" /><stop
         style="stop-opacity:1;stop-color:#ffffff"
         offset="0.40053672"
         id="stop784" /><stop
         style="stop-opacity:1;stop-color:#ffffff"
         offset="1"
         id="stop786" /></linearGradient><linearGradient
       x1="0"
       y1="0"
       x2="1"
       y2="0"
       gradientUnits="userSpaceOnUse"
       gradientTransform="matrix(4.3848472,0,0,-4.3848472,34.62595,29.541416)"
       spreadMethod="pad"
       id="linearGradient810"><stop
         style="stop-opacity:1;stop-color:#333333"
         offset="0"
         id="stop804" /><stop
         style="stop-opacity:1;stop-color:#ffffff"
         offset="0.40053672"
         id="stop806" /><stop
         style="stop-opacity:1;stop-color:#ffffff"
         offset="1"
         id="stop808" /></linearGradient><linearGradient
       x1="0"
       y1="0"
       x2="1"
       y2="0"
       gradientUnits="userSpaceOnUse"
       gradientTransform="matrix(2.6640756,0,0,-2.6640756,52.054722,19.645351)"
       spreadMethod="pad"
       id="linearGradient832"><stop
         style="stop-opacity:1;stop-color:#333333"
         offset="0"
         id="stop826" /><stop
         style="stop-opacity:1;stop-color:#ffffff"
         offset="0.40053672"
         id="stop828" /><stop
         style="stop-opacity:1;stop-color:#ffffff"
         offset="1"
         id="stop830" /></linearGradient><linearGradient
       x1="0"
       y1="0"
       x2="1"
       y2="0"
       gradientUnits="userSpaceOnUse"
       gradientTransform="matrix(1.8174,0,0,-1.8174,62.044899,18.210367)"
       spreadMethod="pad"
       id="linearGradient854"><stop
         style="stop-opacity:1;stop-color:#333333"
         offset="0"
         id="stop848" /><stop
         style="stop-opacity:1;stop-color:#ffffff"
         offset="0.40053672"
         id="stop850" /><stop
         style="stop-opacity:1;stop-color:#ffffff"
         offset="1"
         id="stop852" /></linearGradient><linearGradient
       x1="0"
       y1="0"
       x2="1"
       y2="0"
       gradientUnits="userSpaceOnUse"
       gradientTransform="matrix(1.7035494,0,0,-1.7035494,74.942947,27.115492)"
       spreadMethod="pad"
       id="linearGradient876"><stop
         style="stop-opacity:1;stop-color:#333333"
         offset="0"
         id="stop870" /><stop
         style="stop-opacity:1;stop-color:#ffffff"
         offset="0.40053672"
         id="stop872" /><stop
         style="stop-opacity:1;stop-color:#ffffff"
         offset="1"
         id="stop874" /></linearGradient><linearGradient
       x1="0"
       y1="0"
       x2="1"
       y2="0"
       gradientUnits="userSpaceOnUse"
       gradientTransform="matrix(1.1210999,0,0,-1.1210999,89.583023,22.282623)"
       spreadMethod="pad"
       id="linearGradient898"><stop
         style="stop-opacity:1;stop-color:#333333"
         offset="0"
         id="stop892" /><stop
         style="stop-opacity:1;stop-color:#ffffff"
         offset="0.40053672"
         id="stop894" /><stop
         style="stop-opacity:1;stop-color:#ffffff"
         offset="1"
         id="stop896" /></linearGradient><linearGradient
       x1="0"
       y1="0"
       x2="1"
       y2="0"
       gradientUnits="userSpaceOnUse"
       gradientTransform="matrix(3.5938001,0,0,-3.5938001,109.56742,15.656278)"
       spreadMethod="pad"
       id="linearGradient920"><stop
         style="stop-opacity:1;stop-color:#333333"
         offset="0"
         id="stop914" /><stop
         style="stop-opacity:1;stop-color:#ffffff"
         offset="0.40053672"
         id="stop916" /><stop
         style="stop-opacity:1;stop-color:#ffffff"
         offset="1"
         id="stop918" /></linearGradient><linearGradient
       x1="0"
       y1="0"
       x2="1"
       y2="0"
       gradientUnits="userSpaceOnUse"
       gradientTransform="matrix(1.7127528,0,0,-1.7127528,94.713074,7.1815586)"
       spreadMethod="pad"
       id="linearGradient942"><stop
         style="stop-opacity:1;stop-color:#333333"
         offset="0"
         id="stop936" /><stop
         style="stop-opacity:1;stop-color:#ffffff"
         offset="0.40053672"
         id="stop938" /><stop
         style="stop-opacity:1;stop-color:#ffffff"
         offset="1"
         id="stop940" /></linearGradient><linearGradient
       x1="0"
       y1="0"
       x2="1"
       y2="0"
       gradientUnits="userSpaceOnUse"
       gradientTransform="matrix(0.8642,0,0,-0.8642,54.914097,11.765977)"
       spreadMethod="pad"
       id="linearGradient964"><stop
         style="stop-opacity:1;stop-color:#333333"
         offset="0"
         id="stop958" /><stop
         style="stop-opacity:1;stop-color:#ffffff"
         offset="0.40053672"
         id="stop960" /><stop
         style="stop-opacity:1;stop-color:#ffffff"
         offset="1"
         id="stop962" /></linearGradient><linearGradient
       x1="0"
       y1="0"
       x2="1"
       y2="0"
       gradientUnits="userSpaceOnUse"
       gradientTransform="matrix(2.8018,0,0,-2.8018,0,31.043096)"
       spreadMethod="pad"
       id="linearGradient1102"><stop
         style="stop-opacity:1;stop-color:#333333"
         offset="0"
         id="stop1096" /><stop
         style="stop-opacity:1;stop-color:#ffffff"
         offset="0.40053672"
         id="stop1098" /><stop
         style="stop-opacity:1;stop-color:#ffffff"
         offset="1"
         id="stop1100" /></linearGradient></defs><sodipodi:namedview
     id="namedview4"
     pagecolor="#ffffff"
     bordercolor="#666666"
     borderopacity="1.0"
     inkscape:pageshadow="2"
     inkscape:pageopacity="0.0"
     inkscape:pagecheckerboard="0"
     showgrid="false"
     inkscape:zoom="56.506618"
     inkscape:cx="86.467748"
     inkscape:cy="4.4242605"
     inkscape:window-width="1680"
     inkscape:window-height="954"
     inkscape:window-x="1280"
     inkscape:window-y="31"
     inkscape:window-maximized="1"
     inkscape:current-layer="g8" /><g
     id="g8"
     inkscape:groupmode="layer"
     inkscape:label="lula paluza logo"
     transform="matrix(1.3333333,0,0,-1.3333333,0,80.514114)"
     style="display:inline"><path
       d="m 0.376,14.29 v 15.567 c 0,0 0.465,1.627 2.324,1.744 1.861,0.116 6.277,1.045 6.393,-1.976 0.116,-3.022 0,-10.344 0,-10.344 h 4.179 v 4.998 c 0,0 -0.809,1.975 1.864,1.975 l 4.062,0.117 c 0,0 1.748,0.232 1.748,-1.162 0,0 0.228,1.277 2.088,1.277 l 4.184,-0.115 v 6.973 c 0,0 -0.465,2.088 1.627,2.435 h 4.3 c 0,0 2.44,-0.347 1.738,-1.854 l 0.126,-5.579 c 0,0 9.753,6.741 13.35,-1.975 0,0 0,-6.736 0.47,-6.969 l 3.714,-0.237 c 0,0 5.346,2.794 9.763,-1.976 0,0 5.462,5.811 12.894,1.046 v 7.786 c 0,0 0,1.512 2.324,1.745 l 3.604,-0.233 c 0,0 2.44,-0.117 1.971,-2.496 l 0.06,-2.729 h 4.477 c 0,0 1.854,0.227 1.97,-1.284 0,0 0.814,1.749 2.441,1.511 h 3.835 c 0,0 1.507,-0.812 1.507,-2.087 v -3.719 l 10.691,-0.231 c 0,0 1.738,0 1.859,-1.629 0,0 9.066,5.109 13.012,-1.975 0,0 -0.227,-6.625 0.581,-8.716 0,0 0.814,-2.552 -1.743,-2.203 0,0 -2.092,0.162 -2.557,-0.038 -0.464,-0.195 -1.859,-0.724 -2.32,0 0,0 -4.881,-1.938 -7.094,0.735 0,0 0.121,-0.697 -1.854,-0.465 H 96.812 c 0,0 -1.86,-0.702 -1.748,3.366 0,0 -1.274,0 3.952,4.532 l -1.74,0.116 c 0,0 -0.116,-1.86 -2.324,-1.51 l -3.254,0.115 c 0,0 -4.3,-3.365 -8.478,0.815 0,0 0,-1.745 -2.794,-1.627 l -3.483,0.232 c 0,0 0.93,-3.254 -1.394,-3.021 0,0 -3.022,-0.118 -3.603,-0.233 -0.581,-0.112 -1.51,-0.582 -1.627,0.581 0,0 -6.275,-2.785 -8.827,1.631 0,0 -2.209,-2.556 -5.928,-2.097 L 55.448,1.259 c 0,0 -0.232,-0.911 -1.394,-1.028 -1.162,-0.116 -6.155,-0.929 -6.387,1.395 0,0 0.576,12.895 -0.232,14.29 0,0 -2.673,0.116 -3.603,-0.232 0,0 -1.511,-0.582 -1.859,0.581 0,0 -5.928,-1.975 -7.323,0.348 0,0 -0.924,-0.581 -2.208,-0.469 l -3.946,0.121 c 0,0 0.465,-3.835 -1.511,-3.72 h -4.183 c 0,0 -3.488,-2.207 -7.555,0.232 0,0 -0.344,-1.162 -2.435,-0.929 l -11.39,0.349 c 0,0 -1.046,0 -1.046,2.093"
       style="fill:#333333;fill-opacity:1;fill-rule:nonzero;stroke:none"
       id="path606" /><path
       d="m 0,14.9492 v 15.573 c 0,0 0.46,1.622 2.324,1.739 1.86,0.116 6.271,1.045 6.392,-1.976 0.116,-3.018 0,-10.339 0,-10.339 h 4.18 v 4.998 c 0,0 -0.814,1.975 1.859,1.975 l 4.067,0.112 c 0,0 1.743,0.236 1.743,-1.158 0,0 0.233,1.278 2.092,1.278 l 4.184,-0.12 v 6.973 c 0,0 -0.465,2.091 1.627,2.44 h 4.296 c 0,0 2.44,-0.349 1.743,-1.859 l 0.125,-5.574 c 0,0 9.748,6.736 13.35,-1.98 0,0 0,-6.732 0.465,-6.969 l 3.72,-0.231 c 0,0 5.346,2.788 9.757,-1.977 0,0 5.462,5.811 12.9,1.05 v 7.782 c 0,0 0,1.511 2.324,1.743 l 3.598,-0.232 c 0,0 2.441,-0.116 1.976,-2.501 l 0.06,-2.728 h 4.472 c 0,0 1.86,0.232 1.972,-1.279 0,0 0.818,1.743 2.44,1.511 h 3.835 c 0,0 1.516,-0.814 1.516,-2.092 v -3.719 l 10.682,-0.232 c 0,0 1.748,0.005 1.86,-1.628 0,0 9.064,5.114 13.015,-1.971 0,0 -0.227,-6.624 0.577,-8.715 0,0 0.818,-2.552 -1.739,-2.207 0,0 -2.092,0.167 -2.557,-0.029 -0.464,-0.205 -1.859,-0.734 -2.324,0 0,0 -4.881,-1.942 -7.084,0.725 0,0 0.112,-0.696 -1.864,-0.465 H 96.431 c 0,0 -1.855,-0.697 -1.739,3.37 0,0 -1.283,0 3.947,4.532 l -1.743,0.118 c 0,0 -0.117,-1.861 -2.325,-1.512 l -3.254,0.111 c 0,0 -4.296,-3.365 -8.479,0.818 0,0 0,-1.743 -2.789,-1.626 l -3.482,0.232 c 0,0 0.93,-3.254 -1.394,-3.022 0,0 -3.022,-0.115 -3.603,-0.232 -0.581,-0.116 -1.515,-0.581 -1.627,0.581 0,0 -6.276,-2.789 -8.828,1.627 0,0 -2.208,-2.557 -5.927,-2.091 l -0.116,-3.854 c 0,0 -0.232,-0.908 -1.394,-1.028 -1.162,-0.116 -6.16,-0.929 -6.393,1.4 0,0 0.581,12.894 -0.232,14.29 0,0 -2.673,0.11 -3.598,-0.237 0,0 -1.511,-0.577 -1.859,0.585 0,0 -5.927,-1.98 -7.322,0.348 0,0 -0.929,-0.586 -2.208,-0.469 l -3.952,0.121 c 0,0 0.465,-3.839 -1.506,-3.718 h -4.183 c 0,0 -3.487,-2.209 -7.554,0.233 0,0 -0.349,-1.163 -2.436,-0.931 l -11.389,0.348 c 0,0 -1.046,0 -1.046,2.088"
       style="fill:#333333;fill-opacity:1;fill-rule:nonzero;stroke:none"
       id="path610" /><path
       d="M 1.167,30.875 V 15.074 h 11.151 v 4.059 H 6.164 L 6.043,30.875 Z"
       style="fill:#333333;fill-opacity:1;fill-rule:nonzero;stroke:none"
       id="path614" /><path
       d="m 1.8594,30.2939 v -15.8 h 11.156 v 4.058 h -6.159 l -0.111,11.742 z"
       style="fill:#ffffff;fill-opacity:1;fill-rule:nonzero;stroke:none"
       id="path618" /><path
       d="m 27.594,19.249 h 4.072 v 16.042 h -4.072 z"
       style="fill:#333333;fill-opacity:1;fill-rule:nonzero;stroke:none"
       id="path620" /><path
       d="M 75.963,10.533 H 80.03 V 26.575 H 75.963 Z"
       style="fill:#333333;fill-opacity:1;fill-rule:nonzero;stroke:none"
       id="path622" /><path
       d="m 28.352,18.552 h 4.067 v 16.042 h -4.067 z"
       style="fill:#ffffff;fill-opacity:1;fill-rule:nonzero;stroke:none"
       id="path624" /><path
       d="m 47.8711,18.0546 c 0,0 0.595,-12.979 0.465,-15.011 h 4.3 v 4.881 c 0,0 7.433,-2.594 7.898,4.859 0.465,7.451 -5.342,6.986 -5.69,6.814 -0.349,-0.172 -1.747,0.228 -3.835,-1.543 z"
       style="fill:#333333;fill-opacity:1;fill-rule:nonzero;stroke:none"
       id="path628" /><path
       d="m 48.5684,17.8916 c 0,0 0.596,-12.983 0.465,-15.015 h 4.3 v 4.881 c 0,0 7.433,-2.593 7.898,4.863 0.465,7.452 -5.341,6.987 -5.69,6.814 -0.349,-0.177 -1.747,0.224 -3.835,-1.543 z"
       style="fill:#ffffff;fill-opacity:1;fill-rule:nonzero;stroke:none"
       id="path632" /><path
       d="m 52.883,10.496 h 4.062 v 4.179 h -4.062 z"
       style="fill:#333333;fill-opacity:1;fill-rule:nonzero;stroke:none"
       id="path634" /><path
       d="m 52.752,10.895 h 4.063 v 4.179 h -4.063 z"
       style="fill:#333333;fill-opacity:1;fill-rule:nonzero;stroke:none"
       id="path636" /><path
       d="m 54.147,12.058 h 0.768 v 1.971 h -0.768 z"
       style="fill:#ffffff;fill-opacity:1;fill-rule:nonzero;stroke:none"
       id="path638" /><path
       d="m 76.66,10.714 h 4.295 v 15.68 H 76.66 Z"
       style="fill:#ffffff;fill-opacity:1;fill-rule:nonzero;stroke:none"
       id="path640" /><path
       d="m 82.4942,21.9257 c 0,0 -0.232,-9.236 0.697,-9.645 0,0 3.077,-3.463 7.205,-0.45 l 0.405,0.394 0.293,-0.697 h 3.25 v 10.398 h -4.241 l 0.117,-8.014 h -3.487 v 8.014 z"
       style="fill:#333333;fill-opacity:1;fill-rule:nonzero;stroke:none"
       id="path644" /><path
       d="m 83.1915,21.29 c 0,0 -0.232,-9.232 0.697,-9.646 0,0 3.077,-3.462 7.205,-0.457 l 0.406,0.401 0.292,-0.693 h 3.25 V 21.29 h -4.241 l 0.117,-8.015 h -3.487 v 8.015 z"
       style="fill:#ffffff;fill-opacity:1;fill-rule:nonzero;stroke:none"
       id="path648" /><path
       d="m 13.8291,25.8222 c 0,0 -0.236,-9.232 0.697,-9.641 0,0 3.097,-3.468 7.243,-0.457 l 0.405,0.401 0.293,-0.698 h 3.272 v 10.395 h -4.263 l 0.117,-8.015 h -3.505 v 8.015 z"
       style="fill:#333333;fill-opacity:1;fill-rule:nonzero;stroke:none"
       id="path652" /><path
       d="m 14.5831,25.1718 c 0,0 -0.233,-9.237 0.697,-9.643 0,0 3.082,-3.471 7.205,-0.459 l 0.405,0.4 0.293,-0.696 h 3.249 v 10.398 h -4.24 l 0.121,-8.02 h -3.486 v 8.02 z"
       style="fill:#ffffff;fill-opacity:1;fill-rule:nonzero;stroke:none"
       id="path656" /><path
       d="m 97.0772,16.2089 -0.437,-3.013 6.099,0.367 -6.448,-6.298 v -2.153 h 11.501 v 2.962 h -5.137 l 4.793,4.56 0.344,3.575 z"
       style="fill:#333333;fill-opacity:1;fill-rule:nonzero;stroke:none"
       id="path660" /><path
       d="m 97.0772,15.6269 -0.437,-3.007 6.099,0.362 -6.448,-6.298 v -2.153 h 11.501 v 2.967 h -5.137 l 4.793,4.56 0.344,3.569 z"
       style="fill:#ffffff;fill-opacity:1;fill-rule:nonzero;stroke:none"
       id="path664" /><path
       d="m 66.6934,9.7324 h 2.789 v 2.325"
       style="fill:none;stroke:#333333;stroke-width:0.5;stroke-linecap:butt;stroke-linejoin:miter;stroke-miterlimit:4;stroke-dasharray:none;stroke-opacity:1"
       id="path668" /><path
       d="m 54.1465,12.0576 v 1.971"
       style="fill:none;stroke:#333333;stroke-width:0.5;stroke-linecap:butt;stroke-linejoin:miter;stroke-miterlimit:4;stroke-dasharray:none;stroke-opacity:1"
       id="path672" /><path
       d="m 113.3702,6.3359 h 2.789 v 2.323"
       style="fill:none;stroke:#333333;stroke-width:0.5;stroke-linecap:butt;stroke-linejoin:miter;stroke-miterlimit:4;stroke-dasharray:none;stroke-opacity:1"
       id="path676" /><path
       d="m 34.5997,25.7148 c 1.654,5.686 7.768,4.886 10.018,3.826 4.527,-2.129 -0.396,-8.08 2.078,-11.681 -1.292,0.041 -2.994,0.557 -4.082,-0.178 -0.255,0.377 -0.618,0.498 -0.725,1.033 -1.79,-0.247 -3.031,-1.664 -5.197,-1.19 -1.767,0.385 -3.138,1.724 -2.966,3.658 0.395,4.365 5.746,2.92 8.688,3.863 0.665,2.626 -4.035,3.151 -3.482,0.698 -1.432,-0.076 -2.895,-0.029 -4.332,-0.029"
       style="fill:#333333;fill-opacity:1;fill-rule:nonzero;stroke:none"
       id="path680" /><path
       d="m 34.5997,25.1894 c 1.654,5.686 7.768,4.892 10.018,3.826 4.527,-2.129 -0.396,-8.084 2.078,-11.678 -1.292,0.038 -2.994,0.554 -4.082,-0.18 -0.255,0.376 -0.618,0.502 -0.725,1.032 -1.79,-0.247 -3.031,-1.664 -5.197,-1.19 -1.767,0.39 -3.138,1.729 -2.966,3.663 0.395,4.365 5.746,2.92 8.688,3.858 0.665,2.626 -4.035,3.151 -3.482,0.697 -1.432,-0.069 -2.895,-0.028 -4.332,-0.028"
       style="fill:#ffffff;fill-opacity:1;fill-rule:nonzero;stroke:none"
       id="path684" /><path
       d="m 62.4864,14.8925 c 1.65,5.686 7.764,4.887 10.018,3.826 4.523,-2.129 -0.395,-8.079 2.078,-11.678 -1.292,0.038 -2.998,0.559 -4.081,-0.18 -0.261,0.376 -0.623,0.502 -0.731,1.032 -1.784,-0.242 -3.03,-1.66 -5.196,-1.186 -1.767,0.386 -3.139,1.725 -2.962,3.659 0.395,4.365 5.741,2.92 8.684,3.858 0.669,2.626 -4.036,3.151 -3.487,0.702 -1.427,-0.073 -2.886,-0.033 -4.323,-0.033"
       style="fill:#333333;fill-opacity:1;fill-rule:nonzero;stroke:none"
       id="path688" /><path
       d="m 62.4864,14.4375 c 1.65,5.686 7.764,4.886 10.018,3.826 4.523,-2.129 -0.395,-8.08 2.078,-11.678 -1.292,0.038 -2.998,0.559 -4.081,-0.181 -0.261,0.377 -0.623,0.502 -0.731,1.032 -1.784,-0.246 -3.03,-1.659 -5.196,-1.19 -1.767,0.39 -3.139,1.724 -2.962,3.664 0.395,4.365 5.741,2.919 8.684,3.857 0.669,2.627 -4.036,3.152 -3.487,0.703 -1.427,-0.075 -2.886,-0.033 -4.323,-0.033"
       style="fill:#ffffff;fill-opacity:1;fill-rule:nonzero;stroke:none"
       id="path692" /><path
       d="m 109.8555,11.8164 c 1.655,5.685 7.769,4.885 10.022,3.825 4.519,-2.129 -0.399,-8.084 2.074,-11.677 -1.287,0.038 -2.993,0.553 -4.076,-0.181 -0.256,0.371 -0.624,0.502 -0.731,1.031 -1.784,-0.245 -3.03,-1.664 -5.196,-1.189 -1.767,0.385 -3.139,1.724 -2.962,3.658 0.39,4.369 5.741,2.924 8.688,3.863 0.665,2.627 -4.035,3.151 -3.486,0.697 -1.432,-0.074 -2.892,-0.027 -4.333,-0.027"
       style="fill:#333333;fill-opacity:1;fill-rule:nonzero;stroke:none"
       id="path696" /><path
       d="m 109.8555,11.3281 c 1.655,5.685 7.769,4.885 10.022,3.825 4.519,-2.129 -0.399,-8.084 2.074,-11.676 -1.287,0.037 -2.993,0.552 -4.076,-0.182 -0.256,0.377 -0.624,0.502 -0.731,1.031 -1.784,-0.245 -3.03,-1.664 -5.196,-1.189 -1.767,0.39 -3.139,1.724 -2.962,3.663 0.39,4.365 5.741,2.919 8.688,3.858 0.665,2.627 -4.035,3.152 -3.486,0.697 -1.432,-0.074 -2.892,-0.027 -4.333,-0.027"
       style="fill:#ffffff;fill-opacity:1;fill-rule:nonzero;stroke:none"
       id="path700" /><path
       d="m 38.8067,20.6523 h 2.789 v 2.325"
       style="fill:none;stroke:#333333;stroke-width:0.5;stroke-linecap:butt;stroke-linejoin:miter;stroke-miterlimit:4;stroke-dasharray:none;stroke-opacity:1"
       id="path704" /><path
       d="m 38.8067,20.6523 h 2.789 v 2.325 c 0,0 -2.092,-0.116 -2.789,-0.581 z"
       style="fill:#333333;fill-opacity:1;fill-rule:nonzero;stroke:none"
       id="path708" /><path
       d="m 66.6934,9.7324 h 2.789 v 2.325 c 0,0 -2.092,-0.121 -2.789,-0.586 z"
       style="fill:#333333;fill-opacity:1;fill-rule:nonzero;stroke:none"
       id="path712" /><path
       d="m 113.3702,6.3359 h 2.789 v 2.323 c 0,0 -2.092,-0.119 -2.789,-0.585 z"
       style="fill:#333333;fill-opacity:1;fill-rule:nonzero;stroke:none"
       id="path716" /><path
       d="m 66.6934,9.7324 h 2.789 v 2.325"
       style="fill:none;stroke:#333333;stroke-width:0.25;stroke-linecap:butt;stroke-linejoin:miter;stroke-miterlimit:4;stroke-dasharray:none;stroke-opacity:1"
       id="path720" /><path
       d="m 113.3702,6.3359 h 2.789 v 2.323"
       style="fill:none;stroke:#333333;stroke-width:0.25;stroke-linecap:butt;stroke-linejoin:miter;stroke-miterlimit:4;stroke-dasharray:none;stroke-opacity:1"
       id="path724" /></g><g
     inkscape:groupmode="layer"
     id="layer1"
     inkscape:label="luce lula"
     transform="matrix(1.3333333,0,0,-1.3333333,0,80.514114)"
     style="display:inline"><path
       d="m 0,30.523 0.385,-0.335 c 0,0 0.583,1.416 2.417,1.667 v 0 c 0,0 -0.177,0.043 -0.453,0.043 v 0 C 1.77,31.898 0.754,31.707 0,30.523"
       style="fill:url(#linearGradient1102);stroke:none"
       id="path1104" /><path
       d="m 54.914,12.1 c 0.004,-0.148 0.07,-0.25 0.167,-0.349 v 0 c 0.02,-0.15 0.08,-0.259 0.256,-0.344 v 0 c 0.158,0.08 0.367,0.288 0.441,0.441 v 0 c -0.158,0.191 -0.384,0.277 -0.628,0.277 v 0 c -0.077,0 -0.156,-0.009 -0.236,-0.025"
       style="fill:url(#linearGradient964);stroke:none"
       id="path966" /><path
       d="m 95.054,6.168 c 0.024,0.281 0.191,0.482 0.225,0.771 v 0 L 95.157,6.823 c 0.307,0.559 0.912,0.809 1.269,1.372 v 0 C 95.863,8.092 93.939,6.72 95.054,6.168"
       style="fill:url(#linearGradient942);stroke:none"
       id="path944" /><path
       d="m 109.684,15.301 c 0.004,-0.239 -0.04,-0.373 0.112,-0.567 v 0 c 0.878,0.973 2.013,1.694 3.365,1.759 v 0 c -0.186,0.058 -0.385,0.085 -0.592,0.085 v 0 c -1.001,0 -2.175,-0.623 -2.885,-1.277 m -0.116,-0.111 c 0.037,0.037 0.076,0.074 0.116,0.111 v 0 c 0,0.002 0,0.004 0,0.005 v 0 z"
       style="fill:url(#linearGradient920);stroke:none"
       id="path922" /><path
       d="m 89.606,21.935 c 0.428,0.188 0.668,0.499 1.098,0.815 v 0 c -0.003,0 -0.006,0 -0.008,0 v 0 c -0.538,0 -0.972,-0.333 -1.09,-0.815 m -0.023,-0.009 v -0.112 c 0.006,0.042 0.013,0.082 0.023,0.121 v 0 c -0.008,-0.003 -0.015,-0.006 -0.023,-0.009"
       style="fill:url(#linearGradient898);stroke:none"
       id="path900" /><path
       d="m 74.946,26.459 v 0.116 c 0.148,-0.065 0.422,-0.06 0.566,-0.093 v 0 c -0.339,0.716 0.605,1.051 1.135,1.261 v 0 c -0.091,0.019 -0.183,0.029 -0.277,0.029 v 0 c -0.716,0 -1.474,-0.561 -1.424,-1.313"
       style="fill:url(#linearGradient876);stroke:none"
       id="path878" /><path
       d="m 62.161,17.748 -0.116,-0.116 c 0.106,-0.079 0.33,-0.103 0.441,-0.22 v 0 c 0.27,0.591 0.912,1.037 1.376,1.596 v 0 c -0.655,-0.195 -1.301,-0.704 -1.701,-1.26"
       style="fill:url(#linearGradient854);stroke:none"
       id="path856" /><path
       d="m 52.079,19.152 c 0.822,0.518 1.724,0.623 2.64,0.826 v 0 c -0.147,0.2 -0.412,0.286 -0.719,0.286 v 0 c -0.747,0 -1.745,-0.507 -1.921,-1.112 m -0.024,-0.015 v -0.112 c 0.004,0.043 0.012,0.085 0.024,0.127 v 0 c -0.008,-0.005 -0.016,-0.01 -0.024,-0.015"
       style="fill:url(#linearGradient832);stroke:none"
       id="path834" /><path
       d="m 36.343,29.974 c -0.256,-0.107 -2.654,-1.447 -1.31,-1.39 v 0 -0.089 c 0.937,1.237 2.601,1.604 3.977,2.092 v 0 c -1.063,-0.014 -1.751,-0.233 -2.667,-0.613"
       style="fill:url(#linearGradient810);stroke:none"
       id="path812" /><path
       d="m 33.037,36.059 c 0.044,-0.06 0.098,-0.133 0.145,-0.208 v 0 c 0.477,-0.371 0.617,-0.822 0.716,-1.401 v 0 c 0.928,0.612 0.035,1.611 -0.794,1.611 v 0 c -0.023,0 -0.045,-10e-4 -0.067,-0.002 m 0.169,-0.246 c -0.008,0.013 -0.016,0.025 -0.024,0.038 v 0 c -0.021,0.017 -0.043,0.033 -0.066,0.049 v 0 z"
       style="fill:url(#linearGradient788);stroke:none"
       id="path790" /><path
       d="m 20.758,25.953 c 0.097,-0.114 0.111,-0.215 0.318,-0.145 v 0 c -0.056,0.506 0.382,0.692 0.702,0.925 v 0 c -0.06,0.013 -0.119,0.02 -0.175,0.02 v 0 c -0.44,0 -0.743,-0.396 -0.845,-0.8 m -0.016,-0.07 c 0.005,0.023 0.01,0.047 0.016,0.07 v 0 c -0.005,0.006 -0.01,0.012 -0.016,0.017 v 0 z"
       style="fill:url(#linearGradient766);stroke:none"
       id="path768" /><path
       d="m 12.932,25.686 c 0.076,-0.054 0.187,-0.119 0.297,-0.146 v 0 c -0.213,0.501 0.122,0.794 0.6,0.956 v 0 c -0.017,0.001 -0.035,0.002 -0.052,0.002 v 0 c -0.473,0 -0.687,-0.417 -0.845,-0.812 m -0.028,-0.069 c 0.009,0.023 0.018,0.046 0.028,0.069 v 0 c -0.01,0.007 -0.019,0.013 -0.028,0.02 v 0 z"
       style="fill:url(#linearGradient744);stroke:none"
       id="path746" /></g><g
     inkscape:groupmode="layer"
     id="layer2"
     inkscape:label="sole lula"
     transform="matrix(1.3333333,0,0,-1.3333333,0,80.514114)"
     style="display:inline"><path
       d="m 70.877,38.4765 c -0.312,-5.976 -4.976,-9.873 -10.41,-8.7 -5.429,1.171 -9.316,6.172 -8.673,11.164 0.642,4.987 5.304,8.88 10.403,8.69 5.105,-0.188 8.992,-5.184 8.68,-11.154"
       style="fill:#333333;fill-opacity:1;fill-rule:nonzero;stroke:none"
       id="path978" /><path
       d="m 70.379,38.6474 c -0.312,-5.971 -4.975,-9.867 -10.409,-8.695 -5.434,1.172 -9.321,6.172 -8.678,11.16 0.643,4.992 5.304,8.884 10.409,8.695 5.104,-0.189 8.991,-5.184 8.678,-11.16"
       style="fill:#333333;fill-opacity:1;fill-rule:nonzero;stroke:none"
       id="path982" /><path
       d="m 55.8575,40.5166 c 0,0 -2.324,0.93 -2.208,0.874 0.116,-0.061 -0.293,1.566 1.627,0.293 0,0 0.52,-0.558 0.581,-0.34 0,0 0.521,0.214 0.697,0.828 0,0 -2.794,2.357 -2.38,2.877 0.405,0.521 1.506,-0.813 1.562,-1.222 0.06,-0.405 1.106,-1.39 1.106,-1.39 l 0.869,0.409 c 0,0 -1.854,2.724 -1.51,3.482 0.353,0.758 1.51,0.404 1.222,-0.642 0,0 0.349,-2.379 0.814,-2.557 l 0.581,0.497 c 0,0 -0.349,3.631 0.349,3.687 0.697,0.06 0.641,-0.404 0.464,-1.683 0,0 0.052,-1.859 0.113,-2.036 l 1.05,-0.172 c 0,0 0.056,3.31 1.102,3.37 1.046,0.056 0,-1.278 0,-1.278 l -0.562,-2.207 1.32,-0.117 c 0,0 0.864,3.658 1.682,3.431 0.814,-0.238 -0.232,-2.794 -0.697,-3.608 0,0 0.233,-0.52 0.637,-0.46 0,0 1.687,3.482 2.501,3.133 0.813,-0.344 -1.223,-2.961 -1.743,-3.426 0,0 -0.116,-0.409 0.232,-0.465 0,0 3.077,3.37 3.603,2.496 0,0 0.581,-0.52 -3.022,-2.844 0,0 0.233,-0.637 0.637,-0.637 0,0 3.198,2.031 3.254,0.93 0,0 1.743,-0.814 -3.022,-1.92 0,0 -0.52,-0.409 -0.343,-0.581 0,0 3.83,0.641 4.062,-0.349 0.233,-0.985 -3.365,-0.288 -3.951,-0.288 0,0 -0.404,-0.465 -0.288,-0.642 0,0 2.673,0.117 2.733,-1.45 0.056,-1.567 -2.617,0.697 -2.617,0.697 0,0 -1.339,-1.631 -3.193,-0.99 -1.86,0.642 -2.79,1.86 -2.501,3.431 0.288,1.566 2.501,2.092 2.9,1.45 0.414,-0.642 2.24,-2.25 0.47,-3.37 -1.772,-1.116 -2.027,1.45 -1.944,1.511 0.088,0.06 0.726,1.627 1.651,0.06 0,0 -0.288,-0.465 -0.865,0.233 0,0 -1.004,-0.982 0.228,-1.279 0,0 1.571,-0.525 1.046,1.451 -0.52,1.98 -2.938,0.641 -2.77,-0.172 0.158,-0.814 -0.716,-1.804 2.305,-2.673 0,0 2.38,-0.409 2.153,3.43 0,0 -0.581,1.422 -2.325,1.348 0,0 -1.803,1.32 -4.998,0.679 0,0 -2.031,-0.465 -2.152,-2.324 -0.116,-1.855 4.068,-1.678 4.244,-2.901 0.173,-1.218 0,-1.743 0,-1.743 0,0 4.357,-0.637 2.497,-4.008 0,0 -1.915,-1.803 -5.402,0.638 -3.482,2.44 -1.799,3.598 -2.148,3.774 -0.348,0.177 1.799,1.046 4.064,-0.055 0,0 0.757,1.101 0.172,1.455 -0.577,0.348 -4.44,1.009 -3.887,3.365"
       style="fill:#333333;fill-opacity:1;fill-rule:nonzero;stroke:none"
       id="path986" /><path
       d="m 56.7266,35.1709 c 0,0 -1.162,-1.739 2.905,-3.018 4.064,-1.278 4.417,2.097 0.409,3.018 -4.011,0.93 -2.789,0 -3.314,0"
       style="fill:#333333;fill-opacity:1;fill-rule:nonzero;stroke:none"
       id="path990" /><path
       d="m 58.3536,41.9111 c 0,0 -2.208,-1.334 -0.349,-2.557 1.86,-1.217 3.966,2.473 0.349,2.557"
       style="fill:#333333;fill-opacity:1;fill-rule:nonzero;stroke:none"
       id="path994" /><path
       d="m 59.1114,41.33 c 0,0 -1.046,0.106 -1.223,-0.823 -0.18,-0.925 0.94,-0.86 0.908,-0.86 -0.038,0 1.71,0.167 0.315,1.683"
       style="fill:#333333;fill-opacity:1;fill-rule:nonzero;stroke:none"
       id="path998" /><path
       d="m 55.5459,41.0839 c 0,0 -2.324,0.934 -2.208,0.874 0.116,-0.061 -0.288,1.566 1.627,0.288 0,0 0.52,-0.554 0.581,-0.335 0,0 0.521,0.219 0.697,0.827 0,0 -2.794,2.358 -2.384,2.878 0.409,0.526 1.51,-0.813 1.571,-1.218 0.055,-0.409 1.101,-1.394 1.101,-1.394 l 0.874,0.409 c 0,0 -1.859,2.729 -1.51,3.482 0.348,0.757 1.51,0.409 1.217,-0.637 0,0 0.349,-2.385 0.814,-2.557 l 0.581,0.493 c 0,0 -0.349,3.63 0.35,3.691 0.697,0.055 0.636,-0.409 0.464,-1.683 0,0 0.051,-1.859 0.112,-2.036 l 1.05,-0.177 c 0,0 0.056,3.315 1.102,3.37 1.051,0.061 0,-1.273 0,-1.273 l -0.567,-2.213 1.32,-0.116 c 0,0 0.874,3.663 1.687,3.426 0.814,-0.228 -0.227,-2.785 -0.697,-3.598 0,0 0.233,-0.525 0.637,-0.465 0,0 1.687,3.486 2.501,3.138 0.813,-0.349 -1.223,-2.966 -1.743,-3.431 0,0 -0.116,-0.404 0.232,-0.465 0,0 3.082,3.37 3.603,2.501 0,0 0.576,-0.52 -3.022,-2.845 0,0 0.233,-0.641 0.642,-0.641 0,0 3.198,2.031 3.254,0.93 0,0 1.738,-0.814 -3.027,-1.916 0,0 -0.52,-0.409 -0.343,-0.581 0,0 3.835,0.637 4.062,-0.349 0.233,-0.99 -3.37,-0.293 -3.946,-0.293 0,0 -0.409,-0.465 -0.293,-0.637 0,0 2.673,0.117 2.728,-1.45 0.061,-1.571 -2.612,0.697 -2.612,0.697 0,0 -1.339,-1.631 -3.198,-0.99 -1.855,0.637 -2.784,1.86 -2.496,3.427 0.293,1.57 2.496,2.092 2.905,1.454 0.409,-0.641 2.24,-2.259 0.465,-3.37 -1.772,-1.115 -2.027,1.451 -1.939,1.511 0.079,0.056 0.721,1.627 1.651,0.056 0,0 -0.293,-0.461 -0.874,0.233 0,0 -0.995,-0.982 0.232,-1.28 0,0 1.571,-0.52 1.051,1.452 -0.525,1.975 -2.943,0.641 -2.78,-0.172 0.163,-0.815 -0.711,-1.8 2.31,-2.674 0,0 2.385,-0.404 2.153,3.427 0,0 -0.581,1.431 -2.325,1.352 0,0 -1.803,1.32 -4.998,0.684 0,0 -2.035,-0.465 -2.151,-2.325 -0.112,-1.86 4.071,-1.687 4.244,-2.906 0.172,-1.218 0,-1.742 0,-1.742 0,0 4.356,-0.638 2.496,-4.008 0,0 -1.915,-1.799 -5.402,0.642 -3.486,2.44 -1.799,3.598 -2.148,3.77 -0.348,0.176 1.799,1.05 4.068,-0.056 0,0 0.754,1.106 0.173,1.451 -0.581,0.352 -4.445,1.014 -3.892,3.37"
       style="fill:#ffffff;fill-opacity:1;fill-rule:nonzero;stroke:none"
       id="path1002" /><path
       d="m 56.4151,35.7421 c 0,0 -1.162,-1.743 2.906,-3.021 4.068,-1.279 4.416,2.091 0.408,3.021 -4.006,0.926 -2.793,0 -3.314,0"
       style="fill:#333333;fill-opacity:1;fill-rule:nonzero;stroke:none"
       id="path1006" /><path
       d="m 58.042,42.4785 c 0,0 -2.208,-1.334 -0.349,-2.553 1.861,-1.222 3.966,2.474 0.349,2.553"
       style="fill:#ffffff;fill-opacity:1;fill-rule:nonzero;stroke:none"
       id="path1010" /><path
       d="m 58.7999,41.8974 c 0,0 -1.041,0.111 -1.223,-0.818 -0.18,-0.93 0.94,-0.865 0.908,-0.865 -0.038,0 1.706,0.172 0.315,1.683"
       style="fill:#333333;fill-opacity:1;fill-rule:nonzero;stroke:none"
       id="path1014" /><path
       d="m 54.5098,51.4687 c -0.771,0.441 -1.976,0.864 -2.617,1.497 -0.465,0.46 -1.516,2.152 -1.019,2.58 1.492,1.274 3.441,-3.417 3.813,-4.161"
       style="fill:#333333;fill-opacity:1;fill-rule:nonzero;stroke:none"
       id="path1018" /><path
       d="m 53.8497,51.9384 c -0.771,0.437 -1.98,0.864 -2.617,1.496 -0.465,0.456 -1.516,2.152 -1.019,2.576 1.492,1.274 3.441,-3.412 3.808,-4.161"
       style="fill:#333333;fill-opacity:1;fill-rule:nonzero;stroke:none"
       id="path1022" /><path
       d="m 54.5469,51.4736 c -0.771,0.437 -1.98,0.859 -2.617,1.492 -0.465,0.46 -1.516,2.153 -1.019,2.58 1.497,1.274 3.441,-3.417 3.813,-4.161"
       style="fill:#333333;fill-opacity:1;fill-rule:nonzero;stroke:none"
       id="path1026" /><path
       d="m 65.6661,53.8251 c 0.098,0.948 -3.421,6.011 -1.399,6.541 0.944,0.251 1.795,-1.994 1.901,-2.636 0.224,-1.301 -0.241,-2.64 -0.59,-3.816"
       style="fill:#333333;fill-opacity:1;fill-rule:nonzero;stroke:none"
       id="path1030" /><path
       d="m 65.6661,52.9511 c 0.098,0.949 -3.421,6.011 -1.399,6.541 0.944,0.246 1.795,-2.004 1.901,-2.64 0.224,-1.297 -0.241,-2.641 -0.59,-3.812"
       style="fill:#333333;fill-opacity:1;fill-rule:nonzero;stroke:none"
       id="path1034" /><path
       d="m 69.334,47.3359 c 0.999,0.67 1.381,2.445 2.236,3.333 0.944,0.977 2.013,2.343 3.337,2.747 2.306,0.707 1.837,-1.152 0.656,-2.314 -0.99,-0.977 -2.589,-1.949 -3.789,-2.562 -0.808,-0.418 -1.896,-0.586 -2.528,-1.204"
       style="fill:#333333;fill-opacity:1;fill-rule:nonzero;stroke:none"
       id="path1038" /><path
       d="m 68.8038,47.1132 c 1,0.664 1.381,2.444 2.236,3.328 0.944,0.981 2.008,2.348 3.338,2.752 2.306,0.707 1.836,-1.157 0.655,-2.315 -0.99,-0.976 -2.588,-1.943 -3.792,-2.566 -0.81,-0.419 -1.893,-0.581 -2.525,-1.199"
       style="fill:#333333;fill-opacity:1;fill-rule:nonzero;stroke:none"
       id="path1042" /><path
       d="m 73.0713,40.5771 c 0.786,0.084 1.292,-0.251 2.004,-0.349 0.706,-0.092 1.585,-0.033 2.268,0.088 0.661,0.121 3.831,1.191 3.291,2.334 -0.325,0.698 -3.425,-0.186 -4.03,-0.306 -1.386,-0.28 -2.278,-1.367 -3.621,-1.767"
       style="fill:#333333;fill-opacity:1;fill-rule:nonzero;stroke:none"
       id="path1046" /><path
       d="m 69.8497,32.5576 c 0.404,-1.031 1.743,-1.961 2.654,-2.459 0.61,-0.334 2.809,-0.901 3.357,-0.241 0.562,0.679 -1.92,1.757 -2.51,2.092 -1.302,0.744 -2.115,1.013 -3.501,0.348"
       style="fill:#333333;fill-opacity:1;fill-rule:nonzero;stroke:none"
       id="path1050" /><path
       d="m 62.9659,28.9648 c -0.2,-2.027 1.575,-3.328 2.259,-4.872 1.046,0.315 -0.079,2.361 -0.325,2.868 -0.461,0.948 -0.954,1.632 -1.934,2.097"
       style="fill:#333333;fill-opacity:1;fill-rule:nonzero;stroke:none"
       id="path1054" /><path
       d="m 62.9659,29.3369 c -0.2,-2.027 1.575,-3.329 2.259,-4.872 1.046,0.31 -0.079,2.356 -0.325,2.868 -0.461,0.948 -0.954,1.632 -1.934,2.092"
       style="fill:#333333;fill-opacity:1;fill-rule:nonzero;stroke:none"
       id="path1058" /><path
       d="m 53.3799,30.8798 c -0.953,-1.022 -1.604,-1.892 -2.157,-3.151 -0.349,-0.787 -1.929,-3.139 -1.07,-3.887 1.632,-1.427 3.064,6.058 3.246,6.843 0.009,0.047 0.05,0.134 0.069,0.195"
       style="fill:#333333;fill-opacity:1;fill-rule:nonzero;stroke:none"
       id="path1062" /><path
       d="m 53.3799,31.5166 c -0.953,-1.022 -1.604,-1.892 -2.157,-3.156 -0.349,-0.786 -1.929,-3.133 -1.07,-3.886 1.632,-1.424 3.064,6.057 3.246,6.847 0.009,0.047 0.05,0.134 0.069,0.195"
       style="fill:#333333;fill-opacity:1;fill-rule:nonzero;stroke:none"
       id="path1066" /><path
       d="m 49.7491,38.6015 c -1.125,0.241 -6.266,-1.186 -4.862,-2.905 1.055,-1.293 4.481,2.124 5.03,3.007"
       style="fill:#333333;fill-opacity:1;fill-rule:nonzero;stroke:none"
       id="path1070" /><path
       d="m 49.8936,38.9218 c -1.102,0.349 -6.351,-0.576 -5.123,-2.422 0.925,-1.39 4.667,1.683 5.295,2.511"
       style="fill:#333333;fill-opacity:1;fill-rule:nonzero;stroke:none"
       id="path1074" /><path
       d="m 50.6973,45.4209 c -0.548,1.134 -2.193,0.935 -3.244,1.088 -1.191,0.177 -2.683,0.394 -3.348,-0.982 -0.827,-1.71 1.665,-1.352 2.678,-1.259 1.423,0.134 2.789,0.688 3.993,1.251"
       style="fill:#333333;fill-opacity:1;fill-rule:nonzero;stroke:none"
       id="path1078" /><path
       d="m 51.1993,45.1093 c -0.441,1.176 -2.101,1.13 -3.133,1.386 -1.167,0.288 -2.631,0.64 -3.421,-0.665 -0.986,-1.632 1.533,-1.506 2.547,-1.506 1.428,0 2.841,0.423 4.096,0.873"
       style="fill:#333333;fill-opacity:1;fill-rule:nonzero;stroke:none"
       id="path1082" /><path
       d="m 70.4493,32.4326 c 0,0 1.214,-4.286 5.411,-2.575 z"
       style="fill:#333333;fill-opacity:1;fill-rule:nonzero;stroke:none"
       id="path598" /><path
       d="m 74.0528,41.0605 c 0,0 2.473,-2.557 5.341,0.019 2.868,2.575 -5.341,-0.019 -5.341,-0.019"
       style="fill:#333333;fill-opacity:1;fill-rule:nonzero;stroke:none"
       id="path602" /></g></svg>
